<svg xmlns="http://www.w3.org/2000/svg" version="1.1" xmlns:xlink="http://www.w3.org/1999/xlink" width="512" height="512" x="0" y="0" viewBox="0 0 24 24" style="enable-background:new 0 0 512 512" xml:space="preserve" class=""><g><path d="m14.46 3.26.88-.88c1.04-1.04 2.85-1.04 3.89 0l.71.71a2.732 2.732 0 0 1 0 3.88l-.88.88-4.6-4.6zM13.4 4.32l-9.11 9.11c-.29.29-.47.67-.5 1.08l-.27 2.93c-.03.37.1.73.36 1 .24.24.55.37.88.37h.11l2.93-.27c.41-.04.79-.22 1.08-.51l9.11-9.11-4.6-4.6zM22.75 22c0-.41-.34-.75-.75-.75H2c-.41 0-.75.34-.75.75s.34.75.75.75h20c.41 0 .75-.34.75-.75z" fill="#dadada" opacity="1" data-original="#000000" class=""></path></g></svg>