<svg id="Layer_1" viewBox="0 0 512 512" xmlns="http://www.w3.org/2000/svg" data-name="Layer 1"><g fill-rule="evenodd"><path d="m136.973 15.721h269.447l88.924 88.924v381.006c0 5.854-4.775 10.629-10.629 10.629h-347.742c-5.854 0-10.629-4.774-10.629-10.629v-459.301c0-5.854 4.775-10.629 10.629-10.629z" fill="#eceff1"/><path d="m136.973 15.721h4.634v480.558h-4.634c-5.854 0-10.629-4.775-10.629-10.629v-459.3c0-5.854 4.774-10.629 10.629-10.629z" fill="#dddee2"/><path d="m406.42 15.721 88.923 88.924h-88.923z" fill="#c3c3c9"/><path d="m47.446 74.831c16.934 0 30.788 13.855 30.788 30.788v260.111l-30.789 66.972-30.789-66.972v-260.111c0-16.934 13.855-30.788 30.789-30.788z" fill="#e6d6d1"/><path d="m40.945 418.563-24.289-52.833v-260.111c0-14.705 10.449-27.086 24.289-30.091 13.84 3.004 24.288 15.385 24.288 30.091v260.111l-24.289 52.833z" fill="#f0e3df"/><path d="m78.234 365.73-30.789 66.972-30.788-66.972z" fill="#ae958d"/><path d="m40.945 418.563-24.288-52.833h48.577z" fill="#c2a9a1"/><path d="m47.446 74.831c16.934 0 30.788 13.855 30.788 30.788v24.021h-61.577v-24.021c0-16.934 13.855-30.788 30.789-30.788z" fill="#ae958d"/><path d="m65.234 129.64h-48.577v-24.021c0-14.705 10.449-27.086 24.288-30.091 13.84 3.004 24.288 15.385 24.288 30.091v24.021z" fill="#c2a9a1"/></g><rect fill="#6cbfff" height="92" rx="14.249" width="92" x="174.818" y="74.627"/><rect fill="#85caff" height="92" rx="14.249" width="83" x="174.818" y="74.627"/><path d="m188.945 122.282c-2.74-4.768-1.096-10.854 3.672-13.594s10.854-1.096 13.593 3.672l5.373 9.307 25.404-25.404c3.905-3.905 10.236-3.905 14.14 0s3.905 10.236 0 14.14l-34.587 34.587c-4.633 4.626-12.446 3.558-15.703-2.109l-11.893-20.6z" fill="#fff" fill-rule="evenodd"/><path d="m308.817 242c-5.523 0-10-4.477-10-10s4.477-10 10-10h75c5.523 0 10 4.477 10 10s-4.477 10-10 10zm0 48c-5.523 0-10-4.477-10-10s4.477-10 10-10h131c5.523 0 10 4.477 10 10s-4.477 10-10 10z" fill="#c3c3c9" fill-rule="evenodd"/><path d="m308.817 377.373c-5.523 0-10-4.477-10-10s4.477-10 10-10h75c5.523 0 10 4.477 10 10s-4.477 10-10 10zm0 48c-5.523 0-10-4.477-10-10s4.477-10 10-10h131c5.523 0 10 4.477 10 10s-4.477 10-10 10z" fill="#c3c3c9" fill-rule="evenodd"/><path d="m308.817 106.628c-5.523 0-10-4.477-10-10s4.477-10 10-10h53.75c5.523 0 10 4.477 10 10s-4.477 10-10 10zm0 48c-5.523 0-10-4.477-10-10s4.477-10 10-10h131c5.523 0 10 4.477 10 10s-4.477 10-10 10z" fill="#c3c3c9" fill-rule="evenodd"/><rect fill="#90ef90" height="92" rx="14.249" width="92" x="174.818" y="210"/><rect fill="#adffad" height="92" rx="14.249" width="83" x="174.818" y="210"/><path d="m188.945 257.655c-2.74-4.768-1.096-10.854 3.672-13.594s10.854-1.096 13.593 3.672l5.373 9.307 25.404-25.404c3.905-3.905 10.236-3.905 14.14 0 3.905 3.905 3.905 10.236 0 14.14l-34.587 34.587c-4.633 4.627-12.446 3.558-15.703-2.109l-11.893-20.6z" fill="#fff" fill-rule="evenodd"/><rect fill="#fcdb35" height="92" rx="14.249" width="92" x="174.818" y="345.373"/><rect fill="#ffeb87" height="92" rx="14.249" width="83" x="174.818" y="345.373"/><path d="m188.945 393.028c-2.74-4.768-1.096-10.854 3.672-13.594s10.854-1.096 13.593 3.672l5.373 9.307 25.404-25.404c3.905-3.905 10.236-3.905 14.14 0s3.905 10.236 0 14.14l-34.587 34.587c-4.633 4.626-12.446 3.558-15.703-2.109l-11.893-20.6z" fill="#fff" fill-rule="evenodd"/></svg>